# xmcd CD database file
#
# Track frame offsets:
#	150
#	25919
#	50420
#	75543
#	102791
#	129553
#	151175
#	168848
#	190326
#	215476
#
# Disc length: 3167 seconds
#
# Revision: 0
# Processed by: cddbd v1.5.1PL0 Copyright (c) Steve Scherf et al.
# Submitted via: CDex 1.51
#
DISCID=780c5d0a
DTITLE=Manolito - Para Que Baile Cuba
DYEAR=1900
DGENRE=Salsa
TTITLE0=Para Que Baile Cuba
TTITLE1=La Boda De Belén
TTITLE2=Tú Me Ganas
TTITLE3=Ven, Ven Siroco Ven
TTITLE4=Te Dejo Libre
TTITLE5=Saliditas Contigo
TTITLE6=Guajirita Ven Conmigo
TTITLE7=Parece Mentira
TTITLE8=Muchachita
TTITLE9=Yo Soy Tu Padre
EXTD=
EXTT0=
EXTT1=
EXTT2=
EXTT3=
EXTT4=
EXTT5=
EXTT6=
EXTT7=
EXTT8=
EXTT9=
PLAYORDER=
